<svg width="32" height="32" viewBox="0 0 32 32" fill="none" xmlns="http://www.w3.org/2000/svg">
<path d="M16 19.1667C16.8399 19.1667 17.6453 18.833 18.2392 18.2392C18.8331 17.6453 19.1667 16.8398 19.1667 16C19.1667 15.1601 18.8331 14.3547 18.2392 13.7608C17.6453 13.167 16.8399 12.8333 16 12.8333C15.1602 12.8333 14.3547 13.167 13.7608 13.7608C13.167 14.3547 12.8334 15.1601 12.8334 16C12.8334 16.8398 13.167 17.6453 13.7608 18.2392C14.3547 18.833 15.1602 19.1667 16 19.1667ZM16 22.3333C14.3203 22.3333 12.7094 21.6661 11.5217 20.4783C10.3339 19.2906 9.66669 17.6797 9.66669 16C9.66669 14.3203 10.3339 12.7094 11.5217 11.5216C12.7094 10.3339 14.3203 9.66666 16 9.66666C17.6797 9.66666 19.2906 10.3339 20.4784 11.5216C21.6661 12.7094 22.3334 14.3203 22.3334 16C22.3334 17.6797 21.6661 19.2906 20.4784 20.4783C19.2906 21.6661 17.6797 22.3333 16 22.3333ZM25.5 14.4167H30.25C30.6699 14.4167 31.0727 14.5835 31.3696 14.8804C31.6665 15.1773 31.8334 15.5801 31.8334 16C31.8334 16.4199 31.6665 16.8226 31.3696 17.1196C31.0727 17.4165 30.6699 17.5833 30.25 17.5833H25.5C25.0801 17.5833 24.6774 17.4165 24.3804 17.1196C24.0835 16.8226 23.9167 16.4199 23.9167 16C23.9167 15.5801 24.0835 15.1773 24.3804 14.8804C24.6774 14.5835 25.0801 14.4167 25.5 14.4167ZM16 23.9167C16.4199 23.9167 16.8227 24.0835 17.1196 24.3804C17.4165 24.6773 17.5834 25.0801 17.5834 25.5V30.25C17.5834 30.6699 17.4165 31.0726 17.1196 31.3696C16.8227 31.6665 16.4199 31.8333 16 31.8333C15.5801 31.8333 15.1774 31.6665 14.8804 31.3696C14.5835 31.0726 14.4167 30.6699 14.4167 30.25V25.5C14.4167 25.0801 14.5835 24.6773 14.8804 24.3804C15.1774 24.0835 15.5801 23.9167 16 23.9167ZM16 0.166656C16.4199 0.166656 16.8227 0.333472 17.1196 0.630404C17.4165 0.927337 17.5834 1.33006 17.5834 1.74999V6.49999C17.5834 6.91992 17.4165 7.32264 17.1196 7.61958C16.8227 7.91651 16.4199 8.08332 16 8.08332C15.5801 8.08332 15.1774 7.91651 14.8804 7.61958C14.5835 7.32264 14.4167 6.91992 14.4167 6.49999V1.74999C14.4167 1.33006 14.5835 0.927337 14.8804 0.630404C15.1774 0.333472 15.5801 0.166656 16 0.166656V0.166656ZM1.75002 14.4167H6.50002C6.91995 14.4167 7.32267 14.5835 7.61961 14.8804C7.91654 15.1773 8.08335 15.5801 8.08335 16C8.08335 16.4199 7.91654 16.8226 7.61961 17.1196C7.32267 17.4165 6.91995 17.5833 6.50002 17.5833H1.75002C1.33009 17.5833 0.927367 17.4165 0.630435 17.1196C0.333502 16.8226 0.166687 16.4199 0.166687 16C0.166687 15.5801 0.333502 15.1773 0.630435 14.8804C0.927367 14.5835 1.33009 14.4167 1.75002 14.4167ZM23.8375 21.5987L27.1958 24.9553C27.4929 25.2522 27.6599 25.655 27.66 26.075C27.6602 26.495 27.4935 26.8978 27.1966 27.1949C26.8997 27.492 26.4969 27.659 26.0769 27.6592C25.6569 27.6593 25.254 27.4926 24.9569 27.1957L21.5987 23.8375C21.3103 23.5389 21.1507 23.1389 21.1543 22.7238C21.1579 22.3086 21.3244 21.9115 21.618 21.6179C21.9115 21.3244 22.3087 21.1579 22.7238 21.1543C23.1389 21.1506 23.5389 21.3102 23.8375 21.5987ZM10.4014 21.5987C10.6982 21.8956 10.8649 22.2982 10.8649 22.7181C10.8649 23.1379 10.6982 23.5406 10.4014 23.8375L7.04469 27.1957C6.7478 27.4928 6.34505 27.6598 5.92504 27.66C5.50503 27.6601 5.10216 27.4934 4.80506 27.1965C4.50796 26.8996 4.34097 26.4969 4.34082 26.0769C4.34068 25.6569 4.50738 25.254 4.80427 24.9569L8.16252 21.5987C8.45944 21.3018 8.86209 21.1351 9.28194 21.1351C9.70178 21.1351 10.1044 21.3018 10.4014 21.5987ZM27.1958 4.80424C27.4926 5.10116 27.6593 5.50381 27.6593 5.92366C27.6593 6.3435 27.4926 6.74615 27.1958 7.04307L23.8375 10.4013C23.5389 10.6897 23.1389 10.8493 22.7238 10.8457C22.3087 10.8421 21.9115 10.6756 21.618 10.382C21.3244 10.0885 21.1579 9.69135 21.1543 9.27621C21.1507 8.86106 21.3103 8.46111 21.5987 8.16249L24.9554 4.80424C25.1024 4.65703 25.277 4.54024 25.4692 4.46056C25.6615 4.38088 25.8675 4.33987 26.0756 4.33987C26.2836 4.33987 26.4897 4.38088 26.6819 4.46056C26.8741 4.54024 27.0487 4.65703 27.1958 4.80424ZM7.0431 4.80424L10.4014 8.16249C10.5526 8.30855 10.6732 8.48326 10.7562 8.67643C10.8392 8.86961 10.8828 9.07737 10.8847 9.2876C10.8865 9.49784 10.8464 9.70633 10.7668 9.90092C10.6872 10.0955 10.5696 10.2723 10.421 10.4209C10.2723 10.5696 10.0955 10.6872 9.90095 10.7668C9.70636 10.8464 9.49787 10.8865 9.28763 10.8846C9.0774 10.8828 8.86964 10.8391 8.67646 10.7561C8.48329 10.6732 8.30858 10.5525 8.16252 10.4013L4.80585 7.04466C4.50876 6.74777 4.34176 6.34502 4.34162 5.92501C4.34147 5.505 4.50817 5.10213 4.80506 4.80503C5.10195 4.50793 5.5047 4.34094 5.92471 4.34079C6.34472 4.34065 6.74759 4.50735 7.04469 4.80424H7.0431Z" fill="white" fill-opacity="0.6"/>
</svg>
