<svg width="38" height="38" viewBox="0 0 38 38" fill="none" xmlns="http://www.w3.org/2000/svg">
<g id="icon-park-outline:color-filter">
<g id="Group">
<path id="Vector" d="M19 32.414C20.7399 33.9748 22.9959 34.8366 25.3333 34.8333C30.5797 34.8333 34.8333 30.5797 34.8333 25.3333C34.8333 20.9071 31.806 17.1871 27.7083 16.1326" stroke="white" stroke-width="4" stroke-linejoin="round"/>
<path id="Vector_2" d="M10.2917 16.1326C6.19399 17.1871 3.16666 20.9063 3.16666 25.3333C3.16666 30.5797 7.42028 34.8333 12.6667 34.8333C17.913 34.8333 22.1667 30.5797 22.1667 25.3333C22.1667 24.1062 21.9339 22.9346 21.5112 21.8579" stroke="white" stroke-width="4" stroke-linejoin="round"/>
<path id="Vector_3" d="M19 22.1667C24.2464 22.1667 28.5 17.913 28.5 12.6667C28.5 7.42028 24.2464 3.16666 19 3.16666C13.7536 3.16666 9.5 7.42028 9.5 12.6667C9.5 17.913 13.7536 22.1667 19 22.1667Z" stroke="white" stroke-width="4" stroke-linejoin="round"/>
</g>
</g>
</svg>
