<svg width="32" height="32" viewBox="0 0 32 32" fill="none" xmlns="http://www.w3.org/2000/svg">
<path d="M16 31.8333C7.25527 31.8333 0.166687 24.7447 0.166687 16C0.166687 7.25524 7.25527 0.166656 16 0.166656C24.7448 0.166656 31.8334 7.25524 31.8334 16C31.8334 24.7447 24.7448 31.8333 16 31.8333ZM5.4376 23.0062C6.4783 24.5633 7.85134 25.8703 9.45785 26.8329C11.0644 27.7956 12.8643 28.39 14.7282 28.5735C16.592 28.7569 18.4734 28.5247 20.2367 27.8936C22 27.2626 23.6015 26.2483 24.9257 24.924C26.25 23.5996 27.2641 21.998 27.895 20.2347C28.5259 18.4713 28.7579 16.5899 28.5743 14.7261C28.3907 12.8622 27.7961 11.0623 26.8333 9.45589C25.8705 7.84947 24.5635 6.47655 23.0063 5.43599C23.689 7.87151 23.7109 10.4449 23.0698 12.8917C22.4287 15.3385 21.1476 17.5705 19.3583 19.3582C17.5706 21.1473 15.3389 22.4282 12.8925 23.0693C10.446 23.7104 7.8729 23.6887 5.4376 23.0062Z" fill="white" fill-opacity="0.6"/>
</svg>
