<svg width="38" height="38" viewBox="0 0 38 38" fill="none" xmlns="http://www.w3.org/2000/svg">
<g id="fa6-solid:arrow-rotate-left">
<path id="Vector" d="M9.3293 11.875H13.0625C14.3762 11.875 15.4375 12.9363 15.4375 14.25C15.4375 15.5637 14.3762 16.625 13.0625 16.625H3.5625C2.24883 16.625 1.1875 15.5637 1.1875 14.25V4.74999C1.1875 3.43632 2.24883 2.37499 3.5625 2.37499C4.87617 2.37499 5.9375 3.43632 5.9375 4.74999V8.54999L7.24375 7.24374C13.7379 0.749603 24.2621 0.749603 30.7563 7.24374C37.2504 13.7379 37.2504 24.2621 30.7563 30.7562C24.2621 37.2504 13.7379 37.2504 7.24375 30.7562C6.31602 29.8285 6.31602 28.3219 7.24375 27.3941C8.17148 26.4664 9.67812 26.4664 10.6059 27.3941C15.2445 32.0328 22.7629 32.0328 27.4016 27.3941C32.0402 22.7555 32.0402 15.2371 27.4016 10.5984C22.7629 5.95976 15.2445 5.95976 10.6059 10.5984L9.3293 11.875Z" fill="white"/>
</g>
</svg>
