<svg width="36" height="26" viewBox="0 0 36 26" fill="none" xmlns="http://www.w3.org/2000/svg">
<path d="M29.0834 6.66668L22.75 13H27.5C27.5 18.2408 23.2409 22.5 18 22.5C16.4009 22.5 14.8809 22.1042 13.5667 21.3917L11.255 23.7033C13.2025 24.9383 15.5142 25.6667 18 25.6667C24.9984 25.6667 30.6667 19.9983 30.6667 13H35.4167L29.0834 6.66668ZM8.50004 13C8.50004 7.75918 12.7592 3.50001 18 3.50001C19.5992 3.50001 21.1192 3.89584 22.4334 4.60834L24.745 2.29668C22.7975 1.06168 20.4859 0.333344 18 0.333344C11.0017 0.333344 5.33337 6.00168 5.33337 13H0.583374L6.91671 19.3333L13.25 13H8.50004Z" fill="white" fill-opacity="0.6"/>
</svg>
