<svg width="30" height="36" viewBox="0 0 30 36" fill="none" xmlns="http://www.w3.org/2000/svg">
<path fill-rule="evenodd" clip-rule="evenodd" d="M21.2462 33.7637C18.2151 35.2453 14.7566 35.6034 11.4862 34.7743C8.2158 33.9451 5.34568 31.9824 3.38664 29.2356C1.42759 26.4887 0.506709 23.1359 0.78787 19.7738C1.06903 16.4116 2.534 13.2583 4.92206 10.875L15 0.798676L25.0763 10.875C26.4395 12.2346 27.512 13.8571 28.2287 15.644C29.2675 18.2352 29.5226 21.0743 28.9621 23.8091C28.4017 26.5439 27.0505 29.054 25.0763 31.0277C23.9603 32.146 22.6659 33.0706 21.2462 33.7637ZM7.16247 13.1138L15 5.27634L22.8375 13.1138C24.8544 15.1257 26.0161 17.8389 26.0801 20.6869H3.9198C3.98363 17.8389 5.14541 15.1256 7.16247 13.1138Z" fill="white" fill-opacity="0.6"/>
</svg>
